<svg id="visual" viewBox="0 0 900 600" width="900" height="600" xmlns="http://www.w3.org/2000/svg" xmlns:xlink="http://www.w3.org/1999/xlink" version="1.1"><rect x="0" y="0" width="900" height="600" fill="#001122"></rect><defs><linearGradient id="grad1_0" x1="33.3%" y1="0%" x2="100%" y2="100%"><stop offset="20%" stop-color="#001122" stop-opacity="1"></stop><stop offset="80%" stop-color="#001122" stop-opacity="1"></stop></linearGradient></defs><defs><linearGradient id="grad2_0" x1="0%" y1="0%" x2="66.7%" y2="100%"><stop offset="20%" stop-color="#001122" stop-opacity="1"></stop><stop offset="80%" stop-color="#001122" stop-opacity="1"></stop></linearGradient></defs><g transform="translate(900, 0)"><path d="M0 324.5C-19.8 303.7 -39.6 282.9 -64.1 280.8C-88.6 278.6 -117.9 295.1 -140.8 292.4C-163.7 289.6 -180.2 267.6 -198.9 249.4C-217.6 231.2 -238.6 216.9 -242.4 193.3C-246.1 169.6 -232.5 136.6 -238.8 115C-245 93.4 -271 83.1 -288.6 65.9C-306.2 48.6 -315.3 24.3 -324.5 0L0 0Z" fill="#FCAF3C"></path></g><g transform="translate(0, 600)"><path d="M0 -324.5C24.8 -324.9 49.6 -325.3 72.2 -316.4C94.9 -307.4 115.4 -289.2 129.7 -269.4C144.1 -249.6 152.2 -228.3 174.6 -218.9C197 -209.5 233.7 -212.1 245.5 -195.8C257.3 -179.5 244.2 -144.4 252.3 -121.5C260.3 -98.6 289.6 -87.9 305.2 -69.6C320.7 -51.4 322.6 -25.7 324.5 0L0 0Z" fill="#FCAF3C"></path></g></svg>