<svg id="visual" viewBox="0 0 900 600" width="900" height="600" xmlns="http://www.w3.org/2000/svg" xmlns:xlink="http://www.w3.org/1999/xlink" version="1.1"><rect x="0" y="0" width="900" height="600" fill="#61aae1"></rect><path d="M0 371L21.5 375.8C43 380.7 86 390.3 128.8 388.8C171.7 387.3 214.3 374.7 257.2 381.2C300 387.7 343 413.3 385.8 417.8C428.7 422.3 471.3 405.7 514.2 400C557 394.3 600 399.7 642.8 399.8C685.7 400 728.3 395 771.2 395.2C814 395.3 857 400.7 878.5 403.3L900 406L900 601L878.5 601C857 601 814 601 771.2 601C728.3 601 685.7 601 642.8 601C600 601 557 601 514.2 601C471.3 601 428.7 601 385.8 601C343 601 300 601 257.2 601C214.3 601 171.7 601 128.8 601C86 601 43 601 21.5 601L0 601Z" fill="#f6a6a1"></path><path d="M0 423L21.5 422.7C43 422.3 86 421.7 128.8 429.7C171.7 437.7 214.3 454.3 257.2 463C300 471.7 343 472.3 385.8 470.3C428.7 468.3 471.3 463.7 514.2 463.3C557 463 600 467 642.8 458.8C685.7 450.7 728.3 430.3 771.2 421.8C814 413.3 857 416.7 878.5 418.3L900 420L900 601L878.5 601C857 601 814 601 771.2 601C728.3 601 685.7 601 642.8 601C600 601 557 601 514.2 601C471.3 601 428.7 601 385.8 601C343 601 300 601 257.2 601C214.3 601 171.7 601 128.8 601C86 601 43 601 21.5 601L0 601Z" fill="#ec8a8e"></path><path d="M0 489L21.5 486.8C43 484.7 86 480.3 128.8 483.5C171.7 486.7 214.3 497.3 257.2 494.3C300 491.3 343 474.7 385.8 471.7C428.7 468.7 471.3 479.3 514.2 476.8C557 474.3 600 458.7 642.8 456.2C685.7 453.7 728.3 464.3 771.2 473.7C814 483 857 491 878.5 495L900 499L900 601L878.5 601C857 601 814 601 771.2 601C728.3 601 685.7 601 642.8 601C600 601 557 601 514.2 601C471.3 601 428.7 601 385.8 601C343 601 300 601 257.2 601C214.3 601 171.7 601 128.8 601C86 601 43 601 21.5 601L0 601Z" fill="#e16c7e"></path><path d="M0 522L21.5 515.2C43 508.3 86 494.7 128.8 495.2C171.7 495.7 214.3 510.3 257.2 512.3C300 514.3 343 503.7 385.8 505.2C428.7 506.7 471.3 520.3 514.2 526.2C557 532 600 530 642.8 524C685.7 518 728.3 508 771.2 507C814 506 857 514 878.5 518L900 522L900 601L878.5 601C857 601 814 601 771.2 601C728.3 601 685.7 601 642.8 601C600 601 557 601 514.2 601C471.3 601 428.7 601 385.8 601C343 601 300 601 257.2 601C214.3 601 171.7 601 128.8 601C86 601 43 601 21.5 601L0 601Z" fill="#d44c71"></path><path d="M0 571L21.5 567.2C43 563.3 86 555.7 128.8 554.3C171.7 553 214.3 558 257.2 560.7C300 563.3 343 563.7 385.8 565.3C428.7 567 471.3 570 514.2 567.3C557 564.7 600 556.3 642.8 548.5C685.7 540.7 728.3 533.3 771.2 530C814 526.7 857 527.3 878.5 527.7L900 528L900 601L878.5 601C857 601 814 601 771.2 601C728.3 601 685.7 601 642.8 601C600 601 557 601 514.2 601C471.3 601 428.7 601 385.8 601C343 601 300 601 257.2 601C214.3 601 171.7 601 128.8 601C86 601 43 601 21.5 601L0 601Z" fill="#c62368"></path></svg>