<svg id="visual" viewBox="0 0 900 600" width="900" height="600" xmlns="http://www.w3.org/2000/svg" xmlns:xlink="http://www.w3.org/1999/xlink" version="1.1"><path d="M0 97L13.7 101C27.3 105 54.7 113 82 118C109.3 123 136.7 125 163.8 120C191 115 218 103 245.2 105C272.3 107 299.7 123 327 132C354.3 141 381.7 143 409 130C436.3 117 463.7 89 491 74C518.3 59 545.7 57 573 60C600.3 63 627.7 71 654.8 83C682 95 709 111 736.2 124C763.3 137 790.7 147 818 151C845.3 155 872.7 153 886.3 152L900 151L900 0L886.3 0C872.7 0 845.3 0 818 0C790.7 0 763.3 0 736.2 0C709 0 682 0 654.8 0C627.7 0 600.3 0 573 0C545.7 0 518.3 0 491 0C463.7 0 436.3 0 409 0C381.7 0 354.3 0 327 0C299.7 0 272.3 0 245.2 0C218 0 191 0 163.8 0C136.7 0 109.3 0 82 0C54.7 0 27.3 0 13.7 0L0 0Z" fill="#6198ff"></path><path d="M0 313L13.7 308C27.3 303 54.7 293 82 295C109.3 297 136.7 311 163.8 313C191 315 218 305 245.2 289C272.3 273 299.7 251 327 253C354.3 255 381.7 281 409 284C436.3 287 463.7 267 491 253C518.3 239 545.7 231 573 238C600.3 245 627.7 267 654.8 285C682 303 709 317 736.2 313C763.3 309 790.7 287 818 282C845.3 277 872.7 289 886.3 295L900 301L900 149L886.3 150C872.7 151 845.3 153 818 149C790.7 145 763.3 135 736.2 122C709 109 682 93 654.8 81C627.7 69 600.3 61 573 58C545.7 55 518.3 57 491 72C463.7 87 436.3 115 409 128C381.7 141 354.3 139 327 130C299.7 121 272.3 105 245.2 103C218 101 191 113 163.8 118C136.7 123 109.3 121 82 116C54.7 111 27.3 103 13.7 99L0 95Z" fill="#3c80ff"></path><path d="M0 373L13.7 365C27.3 357 54.7 341 82 339C109.3 337 136.7 349 163.8 353C191 357 218 353 245.2 347C272.3 341 299.7 333 327 339C354.3 345 381.7 365 409 367C436.3 369 463.7 353 491 338C518.3 323 545.7 309 573 311C600.3 313 627.7 331 654.8 349C682 367 709 385 736.2 384C763.3 383 790.7 363 818 352C845.3 341 872.7 339 886.3 338L900 337L900 299L886.3 293C872.7 287 845.3 275 818 280C790.7 285 763.3 307 736.2 311C709 315 682 301 654.8 283C627.7 265 600.3 243 573 236C545.7 229 518.3 237 491 251C463.7 265 436.3 285 409 282C381.7 279 354.3 253 327 251C299.7 249 272.3 271 245.2 287C218 303 191 313 163.8 311C136.7 309 109.3 295 82 293C54.7 291 27.3 301 13.7 306L0 311Z" fill="#0066ff"></path><path d="M0 445L13.7 438C27.3 431 54.7 417 82 421C109.3 425 136.7 447 163.8 455C191 463 218 457 245.2 452C272.3 447 299.7 443 327 452C354.3 461 381.7 483 409 482C436.3 481 463.7 457 491 432C518.3 407 545.7 381 573 382C600.3 383 627.7 411 654.8 437C682 463 709 487 736.2 480C763.3 473 790.7 435 818 424C845.3 413 872.7 429 886.3 437L900 445L900 335L886.3 336C872.7 337 845.3 339 818 350C790.7 361 763.3 381 736.2 382C709 383 682 365 654.8 347C627.7 329 600.3 311 573 309C545.7 307 518.3 321 491 336C463.7 351 436.3 367 409 365C381.7 363 354.3 343 327 337C299.7 331 272.3 339 245.2 345C218 351 191 355 163.8 351C136.7 347 109.3 335 82 337C54.7 339 27.3 355 13.7 363L0 371Z" fill="#0059dd"></path><path d="M0 601L13.7 601C27.3 601 54.7 601 82 601C109.3 601 136.7 601 163.8 601C191 601 218 601 245.2 601C272.3 601 299.7 601 327 601C354.3 601 381.7 601 409 601C436.3 601 463.7 601 491 601C518.3 601 545.7 601 573 601C600.3 601 627.7 601 654.8 601C682 601 709 601 736.2 601C763.3 601 790.7 601 818 601C845.3 601 872.7 601 886.3 601L900 601L900 443L886.3 435C872.7 427 845.3 411 818 422C790.7 433 763.3 471 736.2 478C709 485 682 461 654.8 435C627.7 409 600.3 381 573 380C545.7 379 518.3 405 491 430C463.7 455 436.3 479 409 480C381.7 481 354.3 459 327 450C299.7 441 272.3 445 245.2 450C218 455 191 461 163.8 453C136.7 445 109.3 423 82 419C54.7 415 27.3 429 13.7 436L0 443Z" fill="#004cbb"></path></svg>